<svg width="993" height="6532" viewBox="0 0 993 6532" fill="none" xmlns="http://www.w3.org/2000/svg">
<path d="M626.382 0C837.011 44 988.269 107.281 979.598 284C972.777 423.022 851.425 466.23 739.451 549C514.818 715.047 162.098 572.5 44.0262 717C-74.046 861.5 362.435 774.476 380.232 928.5C399.937 1099.04 116.5 1034.6 28.5167 1192.5C-172.295 1552.88 800.107 1670.5 906.054 1796C1012 1921.5 1004.61 2149 932.57 2311C860.526 2473 584.357 2505.5 584.357 2505.5C584.357 2505.5 45.8848 2663.53 60.036 2897.5C72.9578 3111.15 514.892 2905.63 563.844 3114C607.732 3300.81 345.21 3388.5 296.68 3526.5C248.151 3664.5 898.049 3654 968.592 3704C1039.13 3754 968.591 3978.5 493.301 4042.5C18.0105 4106.5 -24.9342 4290.5 55.0329 4326.5C135 4362.5 492.184 4331.69 557.34 4533.5C637.707 4782.42 75.9326 4686.05 27.0158 4943C-45.353 5323.14 1158.54 5030.65 956.084 5360.5C843.758 5543.51 465.001 5418.88 428.762 5630.5C397.458 5813.29 682.387 5848.76 813.497 5980C1130.19 6297 230.036 6286.85 238.645 6530.5" stroke="#2BB32A" stroke-width="1.5" stroke-linecap="square"/>
</svg>
