<svg width="1440" height="5141" viewBox="0 0 1440 5141" fill="none" xmlns="http://www.w3.org/2000/svg">
<path d="M886.805 0.0743205C986.888 -1.4439 1187.91 19.063 1065.22 176.635C911.848 373.6 1455.21 527.592 1367.57 373.601C1279.93 219.61 613.874 395.088 1152.86 656.514C1584.04 865.655 736.569 920.328 258.934 921.522C91.767 929.283 -164.804 1007.13 146.247 1256.43C535.061 1568.06 1238.55 1700.59 1195.7 1890.43C1152.86 2080.27 -384.754 2905.95 146.247 2905.95C1314.52 2905.95 250.102 3383.41 709.046 3545.41C849.007 3594.81 1440.94 3511.17 1410.12 3824.66C1352.7 4408.75 -60.5479 4131.44 95.6015 4451.98C290.788 4852.65 1410.12 5002.4 1440 5140" stroke="#2BB32A" stroke-width="1.5" stroke-linecap="square"/>
</svg>
