<svg width="482" height="6539" viewBox="0 0 482 6539" fill="none" xmlns="http://www.w3.org/2000/svg">
<path d="M112.473 0.5C112.473 0.5 329.87 -6.19888e-06 384.345 31.5C438.82 63 448.228 101.4 455.97 156.5C474.777 290.352 257.236 316 161.904 343C66.5722 370 22.1783 432.95 23.6981 520.501C24.7226 579.527 53.4906 610.076 90.279 656.501C142.557 722.473 241.095 724 269.341 777.501C297.588 831.001 141.061 847.514 118.526 927.001C74.6838 1081.64 466.967 993.391 464.545 1154C461.924 1327.74 139.39 1180.34 52.9533 1331.5C-78.0341 1560.58 477.231 1614.24 453.448 1876.5C432.486 2107.65 73.1294 2179.5 63.0414 2327.5C52.9533 2475.5 374.257 2694.5 458.492 2785.5C542.727 2876.5 275.394 2940 225.963 3043C176.532 3146 518.011 3180 387.876 3323.5C257.74 3467 36.8125 3492.5 3.52201 3654.5C-29.7685 3816.5 379.301 3752.5 409.061 3905.5C438.82 4058.5 -80.6808 4138.48 23.6981 4339C104.106 4493.47 304.145 4381 453.448 4468C602.751 4555 40.597 4598.81 64.0502 4795C81.1637 4938.16 185.611 4956.5 323.817 5059.5C462.023 5162.5 500.357 5317 452.439 5395C404.521 5473 69.0942 5472.5 28.2377 5591.5C-12.6188 5710.5 468.076 5691 480.686 5812C493.296 5933 122.056 6119.5 176.532 6226C231.007 6332.5 410.497 6279.93 438.82 6398.5C480.147 6571.51 1 6536 1 6536" stroke="#2BB32A" stroke-width="1.5" stroke-linecap="square"/>
</svg>
