<svg width="762" height="6522" viewBox="0 0 762 6522" fill="none" xmlns="http://www.w3.org/2000/svg">
<path d="M474.024 -3C660.11 60.0145 748.85 132.031 748.312 364.585C747.774 597.138 201.349 757.675 201.349 757.675C201.349 757.675 -178.9 861.309 108.306 1069.25C395.511 1277.18 -27.4509 1260.95 15.2627 1380.82C57.6576 1499.79 286.862 1578.86 286.862 1578.86C286.862 1578.86 490.392 1650.71 571.369 1750.9C697.137 1906.52 925.316 2217.51 445.281 2338.04C280.132 2379.5 204.596 2400.9 114.425 2510.08C43.6013 2595.83 32.1838 2657.72 24.9436 2765.64C15.1364 2911.81 371.842 2896.07 534.26 2978.69C741.47 3084.09 647.74 3221.74 513.823 3311.76C379.905 3401.78 266.057 3436.49 267.501 3571.82C269.48 3757.33 637.122 3597.57 737.556 3757.86C905.439 4025.81 120.138 4147.95 17.414 4251.98C-85.3099 4356 793.49 4365 461.116 4590.56C128.743 4816.11 625.565 4799.98 671.942 4956.14C716.24 5105.29 129.109 5053.9 41.6159 5308.22C-8.25138 5453.18 794.577 5440.17 733.792 5736.82C689.014 5955.35 271.879 5854.78 241.148 6075.4C208.876 6307.07 670.329 6521 670.329 6521" stroke="#2BB32A" stroke-width="1.5" stroke-linecap="square"/>
</svg>
